<svg width="20" height="20" viewBox="0 0 20 20" fill="#0E0762" xmlns="http://www.w3.org/2000/svg">
<path d="M9.99996 13.7501C8.0247 13.7501 6.42575 12.2212 6.27861 10.2837L3.54684 8.1725C3.18772 8.62303 2.85726 9.09933 2.59059 9.62016C2.53102 9.738 2.49998 9.8682 2.49998 10.0002C2.49998 10.1323 2.53102 10.2625 2.59059 10.3803C4.00283 13.1358 6.79866 15.0001 9.99996 15.0001C10.7007 15.0001 11.3768 14.8959 12.0283 14.7277L10.677 13.6821C10.4539 13.7253 10.2273 13.748 9.99996 13.7501ZM18.1724 15.2631L15.2935 13.0381C16.168 12.3011 16.8872 11.3976 17.4093 10.3801C17.4689 10.2622 17.5 10.132 17.5 9.99998C17.5 9.86794 17.4689 9.73774 17.4093 9.6199C15.9971 6.86443 13.2013 5.00011 9.99996 5.00011C8.65921 5.00173 7.34023 5.33927 6.16351 5.98188L2.85048 3.4212C2.80728 3.38758 2.75788 3.36281 2.7051 3.34829C2.65232 3.33378 2.59719 3.3298 2.54287 3.3366C2.48856 3.34339 2.43611 3.36083 2.38853 3.3879C2.34095 3.41497 2.29918 3.45115 2.26559 3.49438L1.75439 4.15245C1.68658 4.23969 1.65619 4.35029 1.66991 4.45992C1.68364 4.56956 1.74035 4.66926 1.82757 4.73709L17.1494 16.579C17.1926 16.6126 17.242 16.6374 17.2948 16.6519C17.3476 16.6664 17.4027 16.6704 17.4571 16.6636C17.5114 16.6568 17.5638 16.6394 17.6114 16.6123C17.659 16.5852 17.7008 16.5491 17.7343 16.5058L18.2458 15.8478C18.3136 15.7605 18.3439 15.6499 18.3302 15.5402C18.3164 15.4306 18.2596 15.3309 18.1724 15.2631ZM13.388 11.5652L12.3645 10.7741C12.4507 10.525 12.4965 10.2637 12.5 10.0001C12.505 9.61424 12.4196 9.23256 12.2504 8.88572C12.0812 8.53888 11.833 8.23656 11.5258 8.00303C11.2186 7.7695 10.8609 7.61128 10.4814 7.54108C10.1019 7.47088 9.71129 7.49065 9.34085 7.59881C9.49788 7.81159 9.58283 8.06898 9.5833 8.33344C9.57941 8.42145 9.56596 8.50876 9.54319 8.59386L7.62627 7.11235C8.29215 6.55589 9.13218 6.25075 9.99996 6.25011C10.4925 6.24984 10.9803 6.34664 11.4354 6.535C11.8904 6.72336 12.304 6.99957 12.6522 7.34785C13.0005 7.69612 13.2767 8.10963 13.4651 8.56472C13.6534 9.01982 13.7502 9.50758 13.75 10.0001C13.75 10.5634 13.6122 11.0884 13.388 11.5655V11.5652Z" fill="#0E0762"/>
</svg>
