<svg width="23" height="24" viewBox="0 0 23 24" fill="none" xmlns="http://www.w3.org/2000/svg">
<g filter="url(#filter0_i_993_234)">
<path d="M4.84906 23C3.50176 23 2.82811 23 2.31352 22.7336C1.86085 22.4993 1.49284 22.1253 1.26221 21.6653C1 21.1425 1 20.4579 1 19.0889V4.91111C1 3.54209 1 2.85758 1.26221 2.33469C1.49284 1.87473 1.86085 1.50078 2.31352 1.26643C2.82811 1 3.50177 1 4.84906 1H16.3962C17.7435 1 18.4172 1 18.9318 1.26643C19.3844 1.50078 19.7525 1.87473 19.9831 2.33469C20.2453 2.85758 20.2453 3.5421 20.2453 4.91111V5.88889M5.81133 5.88889H13.0283M5.81133 15.6667H7.01416M5.81133 10.7778H10.6227M9.65486 22.8711L11.2363 22.5535C12.0897 22.3822 12.5164 22.2965 12.9143 22.1386C13.2674 21.9985 13.603 21.8165 13.9142 21.5964C14.2647 21.3483 14.5723 21.0359 15.1873 20.4108L21.3801 14.1184C22.2066 13.2783 22.2066 11.9164 21.3801 11.0765C20.5534 10.2365 19.213 10.2365 18.3865 11.0765L12.0879 17.4765C11.5115 18.0622 11.2233 18.3551 10.9906 18.687C10.784 18.9817 10.6101 19.2987 10.4724 19.6324C10.3173 20.0082 10.224 20.4113 10.0375 21.2176L9.65486 22.8711Z" stroke="#0E0762" stroke-width="2" stroke-linecap="round" stroke-linejoin="round"/>
</g>
<defs>
<filter id="filter0_i_993_234" x="0" y="0" width="23" height="28" filterUnits="userSpaceOnUse" color-interpolation-filters="sRGB">
<feFlood flood-opacity="0" result="BackgroundImageFix"/>
<feBlend mode="normal" in="SourceGraphic" in2="BackgroundImageFix" result="shape"/>
<feColorMatrix in="SourceAlpha" type="matrix" values="0 0 0 0 0 0 0 0 0 0 0 0 0 0 0 0 0 0 127 0" result="hardAlpha"/>
<feOffset dy="4"/>
<feGaussianBlur stdDeviation="2"/>
<feComposite in2="hardAlpha" operator="arithmetic" k2="-1" k3="1"/>
<feColorMatrix type="matrix" values="0 0 0 0 0 0 0 0 0 0 0 0 0 0 0 0 0 0 0.25 0"/>
<feBlend mode="normal" in2="shape" result="effect1_innerShadow_993_234"/>
</filter>
</defs>
</svg>
