<svg width="60" height="60" viewBox="0 0 31 31" fill="#999999" xmlns="http://www.w3.org/2000/svg">
                        <path d="M27.4071 0H3.59291C1.60877 0 0 1.60877 0 3.59291V27.4071C0 29.3912 1.60877 31 3.59291 31H27.4071C29.3912 31 31 29.3912 31 27.4071V3.59291C31 1.60877 29.3912 0 27.4071 0ZM22.6256 5.84005C24.6744 5.84005 26.3353 7.50097 26.3353 9.54976C26.3353 11.5986 24.6744 13.2595 22.6256 13.2595C20.5768 13.2595 18.9159 11.5986 18.9159 9.54976C18.9159 7.50097 20.5768 5.84005 22.6256 5.84005ZM27.878 25.359C27.878 25.7359 27.5724 26.0415 27.1955 26.0415H4.53908C4.16223 26.0415 3.85664 25.7359 3.85664 25.359L9.45426 13.5533L9.77382 12.9172C10.147 12.1752 11.0505 11.8762 11.7925 12.2487L18.2812 20.341C18.6742 20.8405 19.3956 20.9338 19.9024 20.5489L22.3824 18.6691C22.691 18.4531 23.117 18.5287 23.333 18.8373L27.878 25.3392V25.359Z" fill="#999999"/>
                    </svg> 